<svg width="25" height="25" viewBox="0 0 25 25" fill="none" xmlns="http://www.w3.org/2000/svg">
<path d="M2.54237 24.75L2.54237 9.25C2.54237 9.1125 2.41525 9 2.25989 9H0.282486C0.127119 9 0 9.1125 0 9.25L0 24.75C0 24.8875 0.127119 25 0.282486 25H2.25989C2.41525 25 2.54237 24.8875 2.54237 24.75ZM17.5141 24.75V9.25C17.5141 9.1125 17.387 9 17.2316 9H15.2542C15.0989 9 14.9718 9.1125 14.9718 9.25L14.9718 24.75C14.9718 24.8875 15.0989 25 15.2542 25H17.2316C17.387 25 17.5141 24.8875 17.5141 24.75ZM22.4576 0.25V24.75C22.4576 24.8875 22.5847 25 22.7401 25H24.7175C24.8729 25 25 24.8875 25 24.75V0.25C25 0.112499 24.8729 0 24.7175 0H22.7401C22.5847 0 22.4576 0.112499 22.4576 0.25ZM7.48588 0.25L7.48588 24.75C7.48588 24.8875 7.61299 25 7.76836 25H9.74576C9.90113 25 10.0282 24.8875 10.0282 24.75L10.0282 0.25C10.0282 0.112499 9.90113 0 9.74576 0H7.76836C7.61299 0 7.48588 0.112499 7.48588 0.25Z" fill="black" fill-opacity="0.85"/>
</svg>
