<svg width="32" height="28" viewBox="0 0 32 28" fill="none" xmlns="http://www.w3.org/2000/svg">
<circle cx="9.5" cy="9.5" r="8.5" fill="#D9D9D9"/>
<circle cx="9.5" cy="9.5" r="8.5" fill="#2468EE"/>
<circle cx="22.5" cy="9.5" r="8.5" fill="#2468EE"/>
<ellipse cx="16" cy="16.5" rx="8" ry="8.5" fill="#2468EE"/>
<path d="M0.750035 9.30647C0.750129 11.5931 1.64834 13.736 3.26548 15.3531L15.2095 27.2971C15.4215 27.5091 15.7076 27.6248 15.9905 27.6248C16.2685 27.6248 16.5561 27.5188 16.7714 27.3035L28.7406 15.3789L28.7409 15.3786C30.3586 13.7609 31.25 11.6112 31.25 9.32523M0.750035 9.30647C0.743577 7.02005 1.63514 4.87035 3.25276 3.25273C4.86416 1.64133 7.0138 0.75 9.29342 0.75C11.5797 0.75 13.7356 1.64793 15.3532 3.26545L15.4792 3.3915C15.7721 3.68439 16.247 3.68439 16.5399 3.3915L16.6532 3.27817C18.2709 1.66044 20.4206 0.76908 22.7066 0.76908C24.9923 0.76908 27.1357 1.65388 28.7536 3.27181C30.3715 4.88971 31.2563 7.03943 31.25 9.32523M0.750035 9.30647C0.750035 9.30635 0.750035 9.30623 0.750035 9.30611H1.00003L0.750036 9.30683C0.750036 9.30671 0.750035 9.30659 0.750035 9.30647ZM31.25 9.32523C31.25 9.32546 31.25 9.32568 31.25 9.3259L31 9.32519H31.25C31.25 9.3252 31.25 9.32522 31.25 9.32523ZM4.82062 4.82785L4.82107 4.82739C6.01449 3.63397 7.60454 2.97355 9.29342 2.97355C10.9889 2.97355 12.5852 3.63412 13.7849 4.83375L15.2222 6.27111C15.6569 6.70581 16.3558 6.70581 16.7905 6.27111L18.2151 4.84647C19.4149 3.64675 21.0113 2.98627 22.7002 2.98627C24.389 2.98627 25.9792 3.6466 27.1793 4.84047C28.3784 6.03981 29.0328 7.62954 29.0328 9.32519L29.0328 9.32609C29.0389 11.0206 28.3788 12.6104 27.1789 13.8103L16.5211 24.4263C16.2281 24.7182 15.754 24.7178 15.4615 24.4253L4.82743 13.7912C3.62761 12.5914 2.96722 11.0013 2.96722 9.30611C2.96722 7.61018 3.62175 6.0206 4.82062 4.82785Z" fill="#2468EE"/>
<path d="M0.750035 9.30647C0.750129 11.5931 1.64834 13.736 3.26548 15.3531L15.2095 27.2971C15.4215 27.5091 15.7076 27.6248 15.9905 27.6248C16.2685 27.6248 16.5561 27.5188 16.7714 27.3035L28.7406 15.3789L28.7409 15.3786C30.3586 13.7609 31.25 11.6112 31.25 9.32523M0.750035 9.30647C0.743577 7.02005 1.63514 4.87035 3.25276 3.25273C4.86416 1.64133 7.0138 0.75 9.29342 0.75C11.5797 0.75 13.7356 1.64793 15.3532 3.26545L15.4792 3.3915C15.7721 3.68439 16.247 3.68439 16.5399 3.3915L16.6532 3.27817C18.2709 1.66044 20.4206 0.76908 22.7066 0.76908C24.9923 0.76908 27.1357 1.65388 28.7536 3.27181C30.3715 4.88971 31.2563 7.03943 31.25 9.32523M0.750035 9.30647C0.750035 9.30635 0.750035 9.30623 0.750035 9.30611H1.00003L0.750036 9.30683C0.750036 9.30671 0.750035 9.30659 0.750035 9.30647ZM31.25 9.32523C31.25 9.32546 31.25 9.32568 31.25 9.3259L31 9.32519H31.25C31.25 9.3252 31.25 9.32522 31.25 9.32523ZM4.82062 4.82785L4.82107 4.82739C6.01449 3.63397 7.60454 2.97355 9.29342 2.97355C10.9889 2.97355 12.5852 3.63412 13.7849 4.83375L15.2222 6.27111C15.6569 6.70581 16.3558 6.70581 16.7905 6.27111L18.2151 4.84647C19.4149 3.64675 21.0113 2.98627 22.7002 2.98627C24.389 2.98627 25.9792 3.6466 27.1793 4.84047C28.3784 6.03981 29.0328 7.62954 29.0328 9.32519L29.0328 9.32609C29.0389 11.0206 28.3788 12.6104 27.1789 13.8103L16.5211 24.4263C16.2281 24.7182 15.754 24.7178 15.4615 24.4253L4.82743 13.7912C3.62761 12.5914 2.96722 11.0013 2.96722 9.30611C2.96722 7.61018 3.62175 6.0206 4.82062 4.82785Z" fill="black" fill-opacity="0.2"/>
<path d="M0.750035 9.30647C0.750129 11.5931 1.64834 13.736 3.26548 15.3531L15.2095 27.2971C15.4215 27.5091 15.7076 27.6248 15.9905 27.6248C16.2685 27.6248 16.5561 27.5188 16.7714 27.3035L28.7406 15.3789L28.7409 15.3786C30.3586 13.7609 31.25 11.6112 31.25 9.32523M0.750035 9.30647C0.743577 7.02005 1.63514 4.87035 3.25276 3.25273C4.86416 1.64133 7.0138 0.75 9.29342 0.75C11.5797 0.75 13.7356 1.64793 15.3532 3.26545L15.4792 3.3915C15.7721 3.68439 16.247 3.68439 16.5399 3.3915L16.6532 3.27817C18.2709 1.66044 20.4206 0.76908 22.7066 0.76908C24.9923 0.76908 27.1357 1.65388 28.7536 3.27181C30.3715 4.88971 31.2563 7.03943 31.25 9.32523M0.750035 9.30647C0.750035 9.30635 0.750035 9.30623 0.750035 9.30611H1.00003L0.750036 9.30683C0.750036 9.30671 0.750035 9.30659 0.750035 9.30647ZM31.25 9.32523C31.25 9.32546 31.25 9.32568 31.25 9.3259L31 9.32519H31.25C31.25 9.3252 31.25 9.32522 31.25 9.32523ZM4.82062 4.82785L4.82107 4.82739C6.01449 3.63397 7.60454 2.97355 9.29342 2.97355C10.9889 2.97355 12.5852 3.63412 13.7849 4.83375L15.2222 6.27111C15.6569 6.70581 16.3558 6.70581 16.7905 6.27111L18.2151 4.84647C19.4149 3.64675 21.0113 2.98627 22.7002 2.98627C24.389 2.98627 25.9792 3.6466 27.1793 4.84047C28.3784 6.03981 29.0328 7.62954 29.0328 9.32519L29.0328 9.32609C29.0389 11.0206 28.3788 12.6104 27.1789 13.8103L16.5211 24.4263C16.2281 24.7182 15.754 24.7178 15.4615 24.4253L4.82743 13.7912C3.62761 12.5914 2.96722 11.0013 2.96722 9.30611C2.96722 7.61018 3.62175 6.0206 4.82062 4.82785Z" stroke="#2468EE" stroke-width="0.5"/>
</svg>
