<svg width="20" height="22" viewBox="0 0 20 22" fill="none" xmlns="http://www.w3.org/2000/svg">
<path d="M18.5723 5.64621H14.9294V5.21763C14.9294 2.49621 12.7223 0.289062 10.0008 0.289062C7.27941 0.289062 5.07227 2.49621 5.07227 5.21763V5.64621H1.42941C0.955301 5.64621 0.572266 6.02924 0.572266 6.50335V20.8605C0.572266 21.3346 0.955301 21.7176 1.42941 21.7176H18.5723C19.0464 21.7176 19.4294 21.3346 19.4294 20.8605V6.50335C19.4294 6.02924 19.0464 5.64621 18.5723 5.64621ZM7.00084 5.21763C7.00084 3.5596 8.3428 2.21763 10.0008 2.21763C11.6589 2.21763 13.0008 3.5596 13.0008 5.21763V5.64621H7.00084V5.21763ZM17.5008 19.7891H2.50084V7.57478H5.07227V9.93192C5.07227 10.0498 5.16869 10.1462 5.28655 10.1462H6.78655C6.90441 10.1462 7.00084 10.0498 7.00084 9.93192V7.57478H13.0008V9.93192C13.0008 10.0498 13.0973 10.1462 13.2151 10.1462H14.7151C14.833 10.1462 14.9294 10.0498 14.9294 9.93192V7.57478H17.5008V19.7891Z" fill="#2468EE"/>
</svg>
